ffmpeg started on 2016-12-05 at 15:42:05
Report written to "Output/x264/results/ffmpeg/sintelfaster4500k.log"
Command line:
Tools/ffmpeg/ffmpeg -benchmark -y -i Input/y4m/sintel.y4m -c:v libx264 -preset faster -b:v 4500k -an Output/x264/encoded/sintelfaster4500k.mkv
ffmpeg version N-82227-gdb23fde Copyright (c) 2000-2016 the FFmpeg developers
  built with gcc 5.4.0 (Ubuntu 5.4.0-6ubuntu1~16.04.2) 20160609
  configuration: --prefix=/home/jaroslav/ffmpeg_build --pkg-config-flags=--static --extra-cflags=-I/home/jaroslav/ffmpeg_build/include --extra-ldflags=-L/home/jaroslav/ffmpeg_build/lib --bindir=/home/jaroslav/bin --enable-gpl --enable-libass --enable-libfdk-aac --enable-libfreetype --enable-libmp3lame --enable-libopus --enable-libtheora --enable-libvorbis --enable-libvpx --enable-libx264 --enable-libx265 --enable-nvenc --enable-libmfx --enable-libxvid --enable-libgsm --enable-libopencore-amrnb --enable-version3 --enable-nonfree
  libavutil      55. 35.100 / 55. 35.100
  libavcodec     57. 66.101 / 57. 66.101
  libavformat    57. 57.100 / 57. 57.100
  libavdevice    57.  2.100 / 57.  2.100
  libavfilter     6. 66.100 /  6. 66.100
  libswscale      4.  3.100 /  4.  3.100
  libswresample   2.  4.100 /  2.  4.100
  libpostproc    54.  2.100 / 54.  2.100
Input #0, yuv4mpegpipe, from 'Input/y4m/sintel.y4m':
  Duration: 00:00:20.83, start: 0.000000, bitrate: 2057307 kb/s
    Stream #0:0: Video: rawvideo (I420 / 0x30323449), yuv420p(progressive), 4096x1744, SAR 1:1 DAR 256:109, 24 fps, 24 tbr, 24 tbn, 24 tbc
[libx264 @ 0x3e2a1c0] using SAR=1/1
[libx264 @ 0x3e2a1c0] using cpu capabilities: MMX2 SSE2Fast SSSE3 SSE4.2 AVX FMA3 AVX2 LZCNT BMI2
[libx264 @ 0x3e2a1c0] profile High, level 5.1
[libx264 @ 0x3e2a1c0] 264 - core 148 - H.264/MPEG-4 AVC codec - Copyleft 2003-2016 - http://www.videolan.org/x264.html - options: cabac=1 ref=2 deblock=1:0:0 analyse=0x3:0x113 me=hex subme=4 psy=1 psy_rd=1.00:0.00 mixed_ref=0 me_range=16 chroma_me=1 trellis=1 8x8dct=1 cqm=0 deadzone=21,11 fast_pskip=1 chroma_qp_offset=0 threads=6 lookahead_threads=1 sliced_threads=0 nr=0 decimate=1 interlaced=0 bluray_compat=0 constrained_intra=0 bframes=3 b_pyramid=2 b_adapt=1 b_bias=0 direct=1 weightb=1 open_gop=0 weightp=1 keyint=250 keyint_min=24 scenecut=40 intra_refresh=0 rc_lookahead=20 rc=abr mbtree=1 bitrate=4500 ratetol=1.0 qcomp=0.60 qpmin=0 qpmax=69 qpstep=4 ip_ratio=1.40 aq=1:1.00
Output #0, matroska, to 'Output/x264/encoded/sintelfaster4500k.mkv':
  Metadata:
    encoder         : Lavf57.57.100
    Stream #0:0: Video: h264 (libx264) (H264 / 0x34363248), yuv420p, 4096x1744 [SAR 1:1 DAR 256:109], q=-1--1, 4500 kb/s, 24 fps, 1k tbn, 24 tbc
    Metadata:
      encoder         : Lavc57.66.101 libx264
    Side data:
      cpb: bitrate max/min/avg: 0/0/4500000 buffer size: 0 vbv_delay: -1
Stream mapping:
  Stream #0:0 -> #0:0 (rawvideo (native) -> h264 (libx264))
Press [q] to stop, [?] for help
frame=   10 fps=0.0 q=0.0 size=       0kB time=00:00:00.00 bitrate=N/A speed=   0x    frame=   19 fps= 18 q=0.0 size=       0kB time=00:00:00.00 bitrate=N/A speed=   0x    frame=   27 fps= 10 q=0.0 size=       0kB time=00:00:00.00 bitrate=N/A speed=   0x    frame=   33 fps= 10 q=32.0 size=       1kB time=00:00:00.00 bitrate=5864.0kbits/s speed=0.000317x    frame=   36 fps=9.8 q=38.0 size=       1kB time=00:00:00.12 bitrate=  46.5kbits/s speed=0.0342x    frame=   42 fps=9.9 q=49.0 size=       1kB time=00:00:00.37 bitrate=  15.6kbits/s speed=0.0886x    frame=   50 fps= 10 q=50.0 size=       1kB time=00:00:00.70 bitrate=   8.3kbits/s speed=0.148x    frame=   51 fps=5.7 q=51.0 size=       1kB time=00:00:00.75 bitrate=   7.8kbits/s speed=0.0838x    frame=   61 fps=6.4 q=50.0 size=       1kB time=00:00:01.16 bitrate=   5.0kbits/s speed=0.123x    frame=   69 fps=6.9 q=50.0 size=       1kB time=00:00:01.50 bitrate=   3.9kbits/s speed=0.15x    frame=   77 fps=7.3 q=49.0 size=       1kB time=00:00:01.83 bitrate=   3.2kbits/s speed=0.173x    frame=   85 fps=7.6 q=49.0 size=       1kB time=00:00:02.16 bitrate=   2.7kbits/s speed=0.194x    frame=   92 fps=7.9 q=49.0 size=       1kB time=00:00:02.45 bitrate=   2.4kbits/s speed=0.211x    frame=   99 fps=8.1 q=49.0 size=       1kB time=00:00:02.75 bitrate=   2.1kbits/s speed=0.226x    frame=  106 fps=8.4 q=48.0 size=       1kB time=00:00:03.04 bitrate=   1.9kbits/s speed=0.24x    frame=  113 fps=8.6 q=48.0 size=       1kB time=00:00:03.33 bitrate=   1.8kbits/s speed=0.252x    frame=  120 fps=8.7 q=48.0 size=       1kB time=00:00:03.62 bitrate=   1.6kbits/s speed=0.264x    frame=  127 fps=8.9 q=48.0 size=    2631kB time=00:00:03.91 bitrate=5500.6kbits/s speed=0.274x    frame=  135 fps=9.1 q=48.0 size=    2631kB time=00:00:04.25 bitrate=5069.7kbits/s speed=0.286x    frame=  141 fps=9.2 q=45.0 size=    2631kB time=00:00:04.50 bitrate=4788.1kbits/s speed=0.293x    frame=  150 fps=9.4 q=48.0 size=    2631kB time=00:00:04.87 bitrate=4419.9kbits/s speed=0.307x    frame=  158 fps=9.6 q=48.0 size=    2631kB time=00:00:05.20 bitrate=4137.3kbits/s speed=0.317x    frame=  165 fps=9.7 q=48.0 size=    2631kB time=00:00:05.50 bitrate=3917.7kbits/s speed=0.324x    frame=  173 fps=9.9 q=48.0 size=    2631kB time=00:00:05.83 bitrate=3694.1kbits/s speed=0.333x    frame=  181 fps=9.9 q=48.0 size=    2631kB time=00:00:06.16 bitrate=3494.0kbits/s speed=0.339x    frame=  190 fps= 10 q=48.0 size=    3927kB time=00:00:06.54 bitrate=4916.8kbits/s speed=0.35x    frame=  198 fps= 10 q=48.0 size=    3927kB time=00:00:06.87 bitrate=4678.7kbits/s speed=0.358x    frame=  205 fps= 10 q=48.0 size=    3927kB time=00:00:07.16 bitrate=4488.1kbits/s speed=0.363x    frame=  210 fps= 10 q=48.0 size=    3927kB time=00:00:07.37 bitrate=4361.5kbits/s speed=0.364x    frame=  218 fps= 10 q=47.0 size=    4433kB time=00:00:07.70 bitrate=4710.4kbits/s speed=0.371x    frame=  225 fps= 11 q=47.0 size=    4433kB time=00:00:08.00 bitrate=4538.5kbits/s speed=0.375x    frame=  233 fps= 11 q=47.0 size=    4433kB time=00:00:08.33 bitrate=4357.2kbits/s speed=0.381x    frame=  242 fps= 11 q=47.0 size=    4433kB time=00:00:08.70 bitrate=4169.5kbits/s speed=0.388x    frame=  250 fps= 11 q=47.0 size=    4433kB time=00:00:09.04 bitrate=4015.5kbits/s speed=0.394x    frame=  257 fps= 11 q=46.0 size=    4433kB time=00:00:09.33 bitrate=3890.4kbits/s speed=0.397x    frame=  266 fps= 11 q=46.0 size=    4433kB time=00:00:09.70 bitrate=3740.1kbits/s speed=0.404x    frame=  274 fps= 11 q=46.0 size=    4433kB time=00:00:10.04 bitrate=3615.7kbits/s speed=0.409x    frame=  283 fps= 11 q=46.0 size=    4433kB time=00:00:10.41 bitrate=3485.6kbits/s speed=0.415x    frame=  291 fps= 11 q=43.0 size=    4433kB time=00:00:10.75 bitrate=3377.6kbits/s speed=0.42x    frame=  297 fps= 11 q=45.0 size=    5767kB time=00:00:11.00 bitrate=4294.5kbits/s speed=0.419x    frame=  307 fps= 11 q=45.0 size=    5767kB time=00:00:11.41 bitrate=4137.7kbits/s speed=0.426x    frame=  315 fps= 12 q=45.0 size=    5767kB time=00:00:11.75 bitrate=4020.4kbits/s speed=0.43x    frame=  327 fps= 12 q=44.0 size=    5767kB time=00:00:12.25 bitrate=3856.3kbits/s speed=0.44x    frame=  337 fps= 12 q=44.0 size=    5767kB time=00:00:12.66 bitrate=3729.4kbits/s speed=0.447x    frame=  346 fps= 12 q=43.0 size=    5767kB time=00:00:13.04 bitrate=3622.2kbits/s speed=0.452x    frame=  357 fps= 12 q=43.0 size=    5767kB time=00:00:13.50 bitrate=3499.3kbits/s speed=0.459x    frame=  369 fps= 12 q=42.0 size=    5767kB time=00:00:14.00 bitrate=3374.3kbits/s speed=0.466x    frame=  377 fps= 12 q=42.0 size=    5767kB time=00:00:14.33 bitrate=3295.9kbits/s speed=0.469x    frame=  385 fps= 12 q=41.0 size=    5767kB time=00:00:14.66 bitrate=3220.9kbits/s speed=0.47x    frame=  397 fps= 12 q=41.0 size=    6816kB time=00:00:15.16 bitrate=3681.0kbits/s speed=0.477x    frame=  403 fps= 12 q=41.0 size=    6816kB time=00:00:15.41 bitrate=3621.3kbits/s speed=0.477x    frame=  412 fps= 13 q=40.0 size=    6816kB time=00:00:15.79 bitrate=3535.3kbits/s speed=0.481x    frame=  420 fps= 13 q=40.0 size=    6816kB time=00:00:16.12 bitrate=3462.3kbits/s speed=0.482x    frame=  428 fps= 13 q=40.0 size=    6816kB time=00:00:16.45 bitrate=3392.3kbits/s speed=0.485x    frame=  437 fps= 13 q=40.0 size=    6816kB time=00:00:16.83 bitrate=3316.7kbits/s speed=0.489x    frame=  445 fps= 13 q=40.0 size=    6816kB time=00:00:17.16 bitrate=3252.2kbits/s speed=0.491x    frame=  455 fps= 13 q=40.0 size=    7940kB time=00:00:17.58 bitrate=3699.2kbits/s speed=0.493x    frame=  464 fps= 13 q=40.0 size=    7940kB time=00:00:17.95 bitrate=3622.0kbits/s speed=0.496x    frame=  474 fps= 13 q=40.0 size=    7940kB time=00:00:18.37 bitrate=3539.8kbits/s speed=0.501x    frame=  481 fps= 13 q=39.0 size=    7940kB time=00:00:18.66 bitrate=3484.4kbits/s speed=0.501x    frame=  490 fps= 13 q=39.0 size=    7940kB time=00:00:19.04 bitrate=3415.8kbits/s speed=0.504x    frame=  499 fps= 13 q=39.0 size=    7940kB time=00:00:19.41 bitrate=3349.8kbits/s speed=0.504x    frame=  500 fps= 13 q=-1.0 Lsize=    9355kB time=00:00:20.70 bitrate=3700.8kbits/s speed=0.523x    
video:9351kB audio:0kB subtitle:0kB other streams:0kB global headers:0kB muxing overhead: 0.050234%
bench: utime=112.256s
bench: maxrss=1115928kB
[libx264 @ 0x3e2a1c0] frame I:8     Avg QP:34.94  size: 58272
[libx264 @ 0x3e2a1c0] frame P:269   Avg QP:40.57  size: 22299
[libx264 @ 0x3e2a1c0] frame B:223   Avg QP:39.01  size: 13945
[libx264 @ 0x3e2a1c0] consecutive B-frames: 37.0%  8.4%  6.6% 48.0%
[libx264 @ 0x3e2a1c0] mb I  I16..4: 50.8% 48.2%  1.0%
[libx264 @ 0x3e2a1c0] mb P  I16..4: 29.7% 21.8%  0.0%  P16..4:  5.1%  0.5%  0.1%  0.0%  0.0%    skip:42.8%
[libx264 @ 0x3e2a1c0] mb B  I16..4:  5.8%  4.3%  0.0%  B16..8: 12.2%  0.6%  0.0%  direct: 3.5%  skip:73.6%  L0:43.7% L1:54.3% BI: 2.0%
[libx264 @ 0x3e2a1c0] final ratefactor: 37.74
[libx264 @ 0x3e2a1c0] 8x8 transform intra:42.6% inter:90.2%
[libx264 @ 0x3e2a1c0] coded y,uvDC,uvAC intra: 9.6% 15.7% 0.2% inter: 1.3% 1.4% 0.0%
[libx264 @ 0x3e2a1c0] i16 v,h,dc,p: 55% 26% 11%  8%
[libx264 @ 0x3e2a1c0] i8 v,h,dc,ddl,ddr,vr,hd,vl,hu: 10% 17% 63%  2%  1%  1%  2%  1%  2%
[libx264 @ 0x3e2a1c0] i4 v,h,dc,ddl,ddr,vr,hd,vl,hu: 14% 22% 12%  8% 13%  6% 13%  4%  8%
[libx264 @ 0x3e2a1c0] i8c dc,h,v,p: 91%  4%  4%  0%
[libx264 @ 0x3e2a1c0] Weighted P-Frames: Y:0.7% UV:0.0%
[libx264 @ 0x3e2a1c0] ref P L0: 69.8% 30.2%
[libx264 @ 0x3e2a1c0] ref B L0: 84.8% 15.2%
[libx264 @ 0x3e2a1c0] ref B L1: 96.7%  3.3%
[libx264 @ 0x3e2a1c0] kb/s:3676.58
